# xmcd
#
# Track frame offsets: 
#        150
#        17893
#        39720
#        57625
#        72851
#        88673
#        108416
#        128440
#        145272
#
# Disc length: 2229 seconds
#
# Revision: 0
# Processed by: cddbd v1.5.2PL0 Copyright (c) Steve Scherf et al.
# Submitted via: ExactAudioCopyFreeDBPlugin 1.0
#
DISCID=7d08b309
DTITLE=Gene Page - Hot City
DYEAR=1974
DGENRE=Soul
TTITLE0=All Our Dreams Are Coming True
TTITLE1=Jungle Eyes
TTITLE2=She's My Main Squeeze
TTITLE3=Gene's Theme
TTITLE4=I'm Living In A World Of Gloom
TTITLE5=Don't Play That Song
TTITLE6=Satin Soul
TTITLE7=Cream Corner (Get What You Want)
TTITLE8=To The Bone
EXTD=
EXTT0=
EXTT1=
EXTT2=
EXTT3=
EXTT4=
EXTT5=
EXTT6=
EXTT7=
EXTT8=
PLAYORDER=
